<svg width="40" height="40" viewBox="0 0 40 40" fill="none" xmlns="http://www.w3.org/2000/svg">
<path d="M20 0C16.0444 0 12.1776 1.17298 8.8886 3.37061C5.59962 5.56823 3.03617 8.69181 1.52242 12.3463C0.00866568 16.0008 -0.387401 20.0222 0.384303 23.9018C1.15601 27.7814 3.06082 31.3451 5.85787 34.1421C8.65492 36.9392 12.2186 38.844 16.0982 39.6157C19.9778 40.3874 23.9992 39.9913 27.6537 38.4776C31.3082 36.9638 34.4318 34.4004 36.6294 31.1114C38.827 27.8224 40 23.9556 40 20C40 14.6957 37.8929 9.60859 34.1421 5.85786C30.3914 2.10714 25.3043 0 20 0ZM29.4 14.3556L19.5333 28.0444C19.2394 28.4412 18.8105 28.7167 18.3275 28.8191C17.8445 28.9214 17.3407 28.8435 16.9111 28.6L11.2445 25.2889C10.7847 25.0119 10.4539 24.5636 10.3247 24.0427C10.1955 23.5217 10.2786 22.9708 10.5556 22.5111C10.8326 22.0514 11.2808 21.7206 11.8018 21.5914C12.3227 21.4622 12.8736 21.5452 13.3333 21.8222L17.3556 24.2222L26.2444 12.0222C26.5743 11.6917 27.0095 11.4871 27.4744 11.4438C27.9394 11.4005 28.4049 11.5212 28.7901 11.7851C29.1754 12.049 29.4562 12.4393 29.5838 12.8885C29.7114 13.3377 29.6779 13.8174 29.4889 14.2444L29.4 14.3556Z" fill="#E64C45"/>
</svg>
