<svg width="126" height="20" viewBox="0 0 126 20" fill="none" xmlns="http://www.w3.org/2000/svg">
<path d="M108.329 3.31491V18.4999" stroke="black" stroke-width="1.5" stroke-linecap="round" stroke-linejoin="round"/>
<path d="M124.155 13.3106V2.62482C124.155 2.62482 123.311 3.18722 120.499 3.18722C117.687 3.18722 116 1.5 112.625 1.5C109.251 1.5 107.845 2.62482 107.845 2.62482V13.3106C107.845 13.3106 109.813 12.1858 112.625 12.1858C115.437 12.1858 117.687 14.4354 120.499 14.4354C123.311 14.4354 124.155 13.3106 124.155 13.3106Z" fill="black"/>
<path d="M17.3275 8.82759C17.3275 13.5172 9.99995 18.5 9.99995 18.5C9.99995 18.5 2.67236 13.5172 2.67236 8.82759C2.67236 4.72414 6.11491 1.5 9.99995 1.5C13.885 1.5 17.3275 4.72414 17.3275 8.82759Z" fill="black"/>
<path fill-rule="evenodd" clip-rule="evenodd" d="M9.99991 7.06898C9.02865 7.06898 8.24129 7.85635 8.24129 8.8276C8.24129 9.79886 9.02865 10.5862 9.99991 10.5862C10.9712 10.5862 11.7585 9.79886 11.7585 8.8276C11.7585 7.85635 10.9712 7.06898 9.99991 7.06898ZM6.48267 8.8276C6.48267 6.88509 8.05739 5.31036 9.99991 5.31036C11.9424 5.31036 13.5171 6.88509 13.5171 8.8276C13.5171 10.7701 11.9424 12.3448 9.99991 12.3448C8.05739 12.3448 6.48267 10.7701 6.48267 8.8276Z" fill="white"/>
<line x1="20" y1="8" x2="105" y2="8" stroke="black" stroke-width="2" stroke-linecap="round"/>
</svg>
